<svg width="150" viewBox="0 0 227 56" fill="none" xmlns="http://www.w3.org/2000/svg">
<g clip-path="url(#clip0_9768_40796)">
<path d="M144.72 43.3981H137.917C137.917 42.9229 137.917 42.4979 137.917 42.0729C137.917 36.7389 137.931 31.4049 137.905 26.0709C137.9 25.0012 137.825 23.9172 137.636 22.869C137.104 19.9298 135.375 18.4877 132.445 18.3802C130.123 18.2967 128.075 19.0679 126.221 20.4217C125.985 20.5936 125.765 20.9828 125.767 21.2693C125.814 25.2853 125.922 29.299 125.971 33.315C126.006 36.2614 125.978 39.2053 125.978 42.1517C125.978 42.5409 125.978 42.9277 125.978 43.3813H119.128V42.0705C119.128 36.6959 119.132 31.3237 119.123 25.9491C119.123 25.2352 119.09 24.5141 119.004 23.8074C118.491 19.6457 116.099 17.812 112.022 18.4519C111.446 18.5426 110.873 18.6906 110.321 18.8769C107.545 19.8128 107.22 20.2856 107.22 23.2487C107.22 29.4972 107.22 35.748 107.22 41.9965C107.22 42.4287 107.22 42.8585 107.22 43.367H100.449V12.4039C101.982 12.4039 103.494 12.3753 105.003 12.4302C105.265 12.4398 105.584 12.7502 105.757 13.0056C106.129 13.5548 106.424 14.1613 106.751 14.7438C114.086 10.2503 119.619 10.6538 124.071 16.0165C124.841 15.3766 125.587 14.6985 126.39 14.1016C130.306 11.1958 134.565 10.9451 138.937 12.7024C142.272 14.0419 143.747 16.9644 144.393 20.3692C144.636 21.6513 144.774 22.9741 144.781 24.2801C144.821 30.371 144.8 36.4595 144.795 42.5504C144.795 42.8203 144.746 43.0901 144.718 43.3957L144.72 43.3981Z" fill="#424242"/>
<path d="M183.225 12.404C184.559 12.404 185.806 12.3681 187.049 12.4302C187.358 12.4445 187.735 12.7143 187.934 12.9794C188.282 13.445 188.516 13.9989 188.87 14.6483C189.275 14.3738 189.602 14.1255 189.956 13.9177C195.236 10.8018 200.577 10.7923 205.84 13.8437C208.653 15.4745 210.233 18.2012 211.104 21.3194C212.192 25.2185 212.304 29.1748 211.349 33.1168C209.758 39.6781 204.595 43.9353 197.766 44.1215C195.231 44.1908 192.682 43.7323 190.07 43.5079V54.5365H183.227V12.404H183.225ZM190.035 28.2556C190.035 30.5238 190.117 32.7969 190.002 35.0604C189.944 36.2351 190.41 36.7437 191.379 37.1663C195.369 38.9093 200.207 38.224 202.688 35.3827C204.864 32.8876 205.234 29.7956 204.984 26.6367C204.712 23.1985 203.631 20.0635 200.275 18.5474C197.066 17.0981 193.892 17.4562 190.925 19.4523C190.279 19.8869 189.993 20.3835 190.014 21.2096C190.073 23.5567 190.035 25.9061 190.035 28.2532V28.2556Z" fill="#424242"/>
<path d="M38.776 3.03223C45.4439 5.12859 53.2843 13.44 54.7845 24.0842C56.7575 38.0782 48.4233 50.4892 36.6439 54.6461C29.728 57.0863 17.3378 56.0978 15.1846 52.7097C26.7463 51.1291 36.0775 45.9694 41.2311 34.9193C46.3403 23.9648 45.2567 13.249 38.7737 3.03223H38.776Z" fill="#06A9B9"/>
<path d="M173.809 19.7983C171.106 18.497 168.436 17.6685 165.608 17.5682C164.457 17.5276 163.273 17.6661 162.149 17.9216C160.949 18.1962 160.211 19.0653 160.104 20.3761C159.996 21.6822 160.399 22.7781 161.602 23.3487C162.655 23.8478 163.773 24.2059 164.871 24.607C166.629 25.2493 168.424 25.7937 170.146 26.5267C173.432 27.9235 175.132 30.4186 175.033 34.1457C174.933 38.0018 173.585 41.1773 169.976 42.6911C164.653 44.9212 159.303 44.3792 154.079 42.1061C153.799 41.9844 153.455 41.6573 153.415 41.3827C153.11 39.389 152.876 37.3858 152.593 35.1533C153.134 35.4565 153.492 35.669 153.859 35.8624C157.417 37.7224 161.166 38.582 165.159 37.9851C167.19 37.6818 168.234 36.5931 168.391 34.8047C168.536 33.1429 168.129 32.2141 166.626 31.5408C165.136 30.8722 163.551 30.4281 162.018 29.8551C160.595 29.3227 159.144 28.8427 157.782 28.1766C154.508 26.5768 153.448 23.6997 153.616 20.1994C153.778 16.8758 155.123 14.216 158.213 12.9075C162.954 10.8995 167.74 11.3508 172.454 13.1582C172.73 13.2657 173.079 13.5976 173.116 13.8674C173.383 15.7847 173.577 17.7091 173.814 19.7959L173.809 19.7983Z" fill="#424242"/>
<path d="M92.5522 35.9843C92.3439 38.095 92.173 39.9526 91.9554 41.803C91.9296 42.0155 91.6862 42.2734 91.4803 42.3808C87.3915 44.5106 77.8801 45.3296 72.8107 40.762C69.8103 38.0592 68.523 34.5565 68.186 30.6431C67.8233 26.4218 68.1884 22.2744 70.2901 18.4924C72.6118 14.3116 76.2909 12.2367 80.8664 11.7783C84.2343 11.4416 87.5624 11.6995 90.736 13.0963C91.5739 13.4664 91.9858 13.9678 92.0279 14.9634C92.0958 16.5775 92.3509 18.182 92.51 19.648C90.3826 19.0965 88.3441 18.4685 86.2634 18.0721C85.0956 17.8501 83.8411 17.8692 82.6569 18.022C77.7864 18.6476 74.8211 22.4559 74.999 27.7589C75.0271 28.6327 75.0739 29.5138 75.2307 30.3709C76.0756 35.0221 78.842 37.5005 83.4924 37.7965C86.5817 37.9923 89.5354 37.4026 92.5522 35.9891V35.9843Z" fill="#424242"/>
<path d="M12.1166 17.1074C11.9598 18.9125 11.7351 20.5194 11.6907 22.131C11.4309 31.8774 14.9298 39.9549 22.1219 46.3753C22.4496 46.6666 22.6719 47.082 22.9434 47.4378C22.5455 47.655 22.1687 47.9392 21.7475 48.0777C18.0215 49.2858 14.216 49.7896 10.3285 49.2118C9.69428 49.1163 8.98981 48.7677 8.53109 48.3116C3.69811 43.5363 0.962159 37.7033 0.25067 30.8794C0.245989 30.8388 0.255351 30.7982 0.245989 30.76C-0.629329 27.2072 0.941095 24.6643 3.43131 22.4128C5.69684 20.3618 8.13322 18.6212 10.9417 17.4489C11.2764 17.308 11.6415 17.2435 12.1166 17.1074Z" fill="#05A9B9"/>
<path d="M40.9503 17.8525C27.2659 8.80328 14.2648 10.1738 1.26611 19.7005C2.23505 17.6089 2.93249 15.6176 4.00909 13.8675C9.93738 4.22616 18.5478 -0.236367 29.6765 0.219675C31.8274 0.308018 33.358 1.13653 34.6523 2.92011C37.6129 7.00061 39.9533 11.3366 40.838 16.3912C40.9082 16.79 40.9035 17.203 40.9503 17.8549V17.8525Z" fill="#06A9B9"/>
<path d="M220 12H227V43H220V12Z" fill="#424242"/>
<path d="M219.368 0C221.739 0 223.99 0 226.241 0C226.469 0 226.696 0.0262642 227 0.0477531V7.83628H219.368V0Z" fill="#424242"/>
</g>
<defs>
<clipPath id="clip0_9768_40796">
<rect width="227" height="56" fill="white"/>
</clipPath>
</defs>
</svg>
